<svg version="1.1" xmlns="http://www.w3.org/2000/svg" viewBox="0 0 1062.5 1622" width="1062.5" height="1622">
  <!-- svg-source:excalidraw -->
  
  <defs>
    <style>
      @font-face {
        font-family: "Virgil";
        src: url("https://excalidraw.com/Virgil.woff2");
      }
      @font-face {
        font-family: "Cascadia";
        src: url("https://excalidraw.com/Cascadia.woff2");
      }
    </style>
  </defs>
  <rect x="0" y="0" width="1062.5" height="1622" fill="#ffffff"></rect><g stroke-linecap="round" transform="translate(26 32) rotate(0 180 30.5)"><path d="M0.72 0.76 C143.59 -0.73, 286.73 -2.62, 360.18 0.77 M-0.27 -0.54 C83.29 1.35, 165.37 1.46, 360.22 -0.57 M360.63 -1.55 C361.9 11.96, 358.85 24.86, 361.6 59.61 M360.96 0.97 C359.82 15.26, 360.06 29.98, 359.76 60.98 M359.2 59.81 C235.09 61.84, 109.62 62.03, 0.75 59.91 M360.41 60.71 C236.71 62.39, 113.03 62.27, 0.29 61.23 M1.05 60.4 C-1.58 43.63, 0.22 25.28, 0.01 0.95 M-0.07 60.41 C0.1 45.53, 0.35 30.89, -0.12 -0.76" stroke="#000000" stroke-width="1" fill="none"></path></g><g transform="translate(173.5 52) rotate(0 21 12.5)"><text x="21" y="18" font-family="Virgil, Segoe UI Emoji" font-size="20px" fill="#000000" text-anchor="middle" style="white-space: pre;" direction="ltr">TCP</text></g><g stroke-linecap="round" transform="translate(407.5 33.5) rotate(0 170.5 32.5)"><path d="M1.25 0.74 C125.17 0.14, 252.84 -0.79, 340.13 -1.33 M-0.36 -0.58 C128.64 -0.73, 256.16 -1.08, 341.26 -0.01 M339.17 -1.74 C341.93 19.97, 341.56 38.11, 339.95 66.82 M340.77 0.57 C340.52 19.64, 341.26 37.83, 341.09 65.04 M340.93 64.14 C212.1 63.48, 80.74 62.96, -0.17 64.5 M341.21 65.65 C271.28 67.41, 202.83 66.67, 0.4 65.21 M0.91 65.3 C0.57 46.95, 0.66 29.21, -0.95 0.91 M-0.9 64.78 C1.46 46.61, 0 28.18, -0.29 1" stroke="#000000" stroke-width="1" fill="none"></path></g><g transform="translate(544.5 56.5) rotate(0 21.5 12.5)"><text x="21.5" y="18" font-family="Virgil, Segoe UI Emoji" font-size="20px" fill="#000000" text-anchor="middle" style="white-space: pre;" direction="ltr">UDP</text></g><g stroke-linecap="round" transform="translate(407.5 120.5) rotate(0 85 31)"><path d="M-0.73 0.48 C52.12 -1.58, 104.59 -1.99, 169.07 -0.25 M0.1 0.84 C38.66 -0.74, 76.66 -1.49, 169.31 0.84 M169.02 0.17 C168.68 21.24, 168.65 39.68, 171.5 60.08 M170.88 0.1 C170.11 22.11, 169.71 41.78, 169.38 61.69 M169.11 60.72 C116.35 61.39, 64.35 60.7, -0.41 63.6 M170.33 62.02 C110.74 63.25, 53.99 62.88, -0.34 61.79 M0.71 61.83 C1.2 43.04, 1.5 22.62, 2 -0.36 M0.51 62.29 C-0.6 38.3, -0.19 16.08, -0.33 -0.15" stroke="#000000" stroke-width="1" fill="none"></path></g><g transform="translate(473 138.5) rotate(0 24 12.5)"><text x="24" y="18" font-family="Virgil, Segoe UI Emoji" font-size="20px" fill="#000000" text-anchor="middle" style="white-space: pre;" direction="ltr">KCP </text></g><g stroke-linecap="round" transform="translate(29.5 112.5) rotate(0 83.5 34)"><path d="M-0.83 1.39 C55.61 -0.5, 110.53 -1.08, 167.12 1.44 M0.99 -0.09 C41.27 1.83, 83.28 2.08, 166.8 -0.82 M167.69 -0.46 C167.48 15.27, 167.3 33.42, 165.45 69.89 M167.98 -0.99 C167.85 24.7, 167.35 50.44, 166.93 68.4 M165.53 69.29 C131.08 68.91, 90.67 69.36, 0.83 66.74 M166.63 68.8 C99.48 68.66, 34.37 69.26, -0.83 67.09 M-0.12 69.27 C1.19 48.43, -2.08 24.93, -0.19 -1.86 M0.97 68.58 C0.12 46.45, -0.5 23.25, 0.71 0" stroke="#000000" stroke-width="1" fill="none"></path></g><g transform="translate(83 136.5) rotate(0 33 12.5)"><text x="33" y="18" font-family="Virgil, Segoe UI Emoji" font-size="20px" fill="#000000" text-anchor="middle" style="white-space: pre;" direction="ltr">HTTP </text></g><g stroke-linecap="round" transform="translate(216.5 117.5) rotate(0 86.5 33)"><path d="M-1.15 -1.18 C65.64 -1.46, 134.31 -0.37, 171.66 1.87 M0.99 0.94 C56.44 -1.98, 110.76 -0.17, 172.96 -0.65 M174.47 1.24 C173.89 18.87, 174.59 37.85, 171.15 65.3 M173.25 0.06 C173.88 23.53, 172.73 44.91, 173.12 65.85 M173.24 66.47 C109.18 67.97, 50.3 67.68, -0.57 66.81 M173.02 66.3 C118.58 65.28, 65.09 65.39, -0.96 65.74 M1.51 66.28 C-0.05 52.75, -1.39 40.9, 0.85 -0.73 M0.63 66.48 C-0.11 44.95, -0.26 22, 0.25 -0.92" stroke="#000000" stroke-width="1" fill="none"></path></g><g transform="translate(266 141.5) rotate(0 31 12.5)"><text x="31" y="18" font-family="Virgil, Segoe UI Emoji" font-size="20px" fill="#000000" text-anchor="middle" style="white-space: pre;" direction="ltr">MQTT</text></g><g transform="translate(848 56) rotate(0 25 12.5)"><text x="0" y="18" font-family="Virgil, Segoe UI Emoji" font-size="20px" fill="#000000" text-anchor="start" style="white-space: pre;" direction="ltr">UNIX</text></g><g stroke-linecap="round" transform="translate(769.5 32.5) rotate(0 110.5 34)"><path d="M0.8 0.03 C57.89 -1.94, 112.37 -2.28, 219.83 -0.66 M0.71 0.12 C54.47 -0.96, 108.93 -1.31, 220.5 0.48 M221.02 1.35 C219.3 19.89, 220.84 39.38, 221.57 67.43 M220.94 -0.49 C220.8 23.22, 221.25 46.06, 221.93 68.42 M220.94 68.1 C140.52 67.18, 58.81 67.54, 0.07 67.32 M221.81 67.55 C160.55 65.46, 99.07 65.87, 0 68.6 M1.15 67.98 C1.1 48.86, 1.02 28.77, 1.67 -0.68 M0.1 67.9 C-0.81 48.8, -0.25 28.65, 0.12 0.51" stroke="#000000" stroke-width="1" fill="none"></path></g><g stroke-linecap="round" transform="translate(588.5 120) rotate(0 77 31)"><path d="M-0.26 1.42 C55.73 0.84, 110.8 -1.81, 153.14 -1.7 M-0.59 0.13 C61.11 0.35, 121.96 -0.82, 154.56 -0.07 M155.8 -1.37 C154.96 24.58, 152.89 47.38, 154.21 61.9 M153.18 0.07 C155 15.43, 154.78 32.23, 154.53 61.68 M152.98 61.59 C109.71 61.04, 68.88 64.69, -1.59 61.17 M153.23 61.23 C108.01 62.6, 61.47 64.12, -0.33 62.32 M-0.21 60 C-2 48.7, 1 36.61, -0.63 1.56 M0 61.36 C0.09 47.34, 0.01 34.79, -0.33 0.92" stroke="#000000" stroke-width="1" fill="none"></path></g><g transform="translate(639.5 138.5) rotate(0 26 12.5)"><text x="26" y="18" font-family="Virgil, Segoe UI Emoji" font-size="20px" fill="#000000" text-anchor="middle" style="white-space: pre;" direction="ltr">QUIC</text></g><g stroke-linecap="round" transform="translate(10 10) rotate(0 513 97)"><path d="M0.31 -0.38 C309.52 -1.69, 617.37 -0.82, 1026.06 0.15 M-0.31 0.3 C303.65 -1.21, 607.67 -0.59, 1026.38 0 M1024.26 1.52 C1023.94 65.21, 1026.34 127.63, 1024.73 194.98 M1026.56 0.34 C1024.1 55.99, 1023.67 109.64, 1026.11 193.44 M1026.15 194.1 C692.98 190.06, 360.95 191.4, 0.33 194.64 M1026.32 193.71 C815.03 195.61, 603.75 195.62, -0.23 194.24 M1.32 192.84 C-0.79 135.09, -0.21 73.94, -1.87 1.49 M0.96 193.79 C1.87 143.52, 1.98 91.9, 0.36 -0.24" stroke="#0b7285" stroke-width="1" fill="none"></path></g><g stroke-linecap="round" transform="translate(13 228) rotate(0 513 37)"><path d="M0.15 0.76 C384.15 3.88, 768.9 3.97, 1025.63 0.29 M0.17 -0.29 C283.07 -3.49, 565.02 -3.57, 1025.72 -0.23 M1024.93 0.38 C1028.47 18.83, 1028.3 42.42, 1026.63 73.76 M1026.99 -0.07 C1025.37 25.61, 1024.69 54.03, 1025.46 73.4 M1026.52 74.07 C754.76 74.91, 483.38 75.14, -0.19 74.61 M1026.3 73.77 C725.25 75.3, 424.13 75.3, 0.06 74.17 M-1.29 72.22 C-0.42 48.45, 0.01 22.41, -1.03 0 M0.61 74.99 C0.3 57.25, -0.5 38.79, -0.55 0.97" stroke="#495057" stroke-width="1" fill="none"></path></g><g transform="translate(434 256) rotate(0 94.5 12.5)"><text x="0" y="18" font-family="Virgil, Segoe UI Emoji" font-size="20px" fill="#495057" text-anchor="start" style="white-space: pre;" direction="ltr">Light RPC Protocol</text></g><g stroke-linecap="round" transform="translate(13 322) rotate(0 514 80)"><path d="M0.06 0.49 C254.7 -3.66, 509.24 -3.54, 1028.05 -0.62 M-0.4 -0.34 C277.66 -3.69, 555.03 -4.16, 1027.97 0.34 M1028 0.62 C1027.28 45.08, 1028.64 92.07, 1029.99 159 M1028 0.67 C1026.76 38.87, 1027.83 80.38, 1028.96 160.72 M1028.78 159.36 C658.91 157.67, 289.24 157.09, -0.24 160.48 M1027.85 160.02 C686.84 163.9, 346.4 163.42, -0.03 159.74 M1.05 160.46 C0.26 118.54, 0.96 78.69, 0.01 -0.83 M0.15 159.84 C0.33 119.96, -1.22 78.59, 0.63 0.35" stroke="#0b7285" stroke-width="1" fill="none"></path></g><g transform="translate(482 339) rotate(0 44 12.5)"><text x="0" y="18" font-family="Virgil, Segoe UI Emoji" font-size="20px" fill="#495057" text-anchor="start" style="white-space: pre;" direction="ltr">Compress</text></g><g stroke-linecap="round" transform="translate(39 390.5) rotate(0 158 31.5)"><path d="M0.86 -1.36 C93.68 -2.1, 187.77 -1.5, 314.87 0.46 M-0.65 0.19 C89.06 -2.13, 178.22 -1.26, 316.38 -0.58 M315.31 -1.86 C317.09 16, 315.54 31.01, 316.21 64.97 M315.99 0.69 C314.7 25.16, 316.67 48.12, 315.37 63.11 M315.82 63.77 C228.52 59.53, 142.11 60.88, 0.94 63.94 M315.85 63.65 C249.13 63.36, 183.1 62.77, -0.31 62.48 M-0.92 64.71 C1.08 42.62, 0.55 27.38, -1.18 -1.83 M0.59 62.35 C0.82 45.38, -0.22 27.16, 0.15 0.57" stroke="#000000" stroke-width="1" fill="none"></path></g><g transform="translate(148.5 411.5) rotate(0 51.5 12.5)"><text x="51.5" y="18" font-family="Virgil, Segoe UI Emoji" font-size="20px" fill="#495057" text-anchor="middle" style="white-space: pre;" direction="ltr">Raw Data</text></g><g stroke-linecap="round" transform="translate(395 392.5) rotate(0 152.5 30)"><path d="M-0.4 -1.12 C70.8 1.3, 143.07 0.16, 303.61 0.95 M0.47 0.63 C114.09 -0.6, 227.87 -0.37, 305.14 0.61 M303.8 0.26 C305.42 17.85, 306.71 33.99, 304.57 58.59 M305.36 -0.25 C305.4 19.95, 305.75 39.83, 305.64 59.63 M305.4 61.33 C197.47 62, 88.39 61.94, 0.76 59.34 M305.54 59.61 C239.88 58.14, 176.29 58.7, -0.21 60.52 M-0.82 61.93 C1.25 36.81, -1.46 10.68, 0.25 -0.59 M0.26 60.11 C0.2 43.54, -0.14 27.91, -0.54 -0.88" stroke="#000000" stroke-width="1" fill="none"></path></g><g transform="translate(504 408.5) rotate(0 32 12.5)"><text x="32" y="18" font-family="Virgil, Segoe UI Emoji" font-size="20px" fill="#495057" text-anchor="middle" style="white-space: pre;" direction="ltr">Snappy</text></g><g stroke-linecap="round" transform="translate(742 395.5) rotate(0 146.5 29.5)"><path d="M-0.12 -0.67 C88.63 1.08, 179.98 1.02, 293.36 0.56 M0.71 0.19 C76.19 0.55, 152.18 0.99, 293.52 0.62 M294.66 1.93 C292.71 13.97, 291.2 27.95, 293.73 58.07 M292.62 -0.02 C293.42 17.44, 293.26 36.05, 292.6 58.07 M294.32 58.9 C191.32 57.72, 88.95 58.69, -1.3 60.04 M293.54 58.64 C209.44 58.97, 126.25 59.9, -0.48 58.47 M1.66 60.58 C-0.8 42.53, 0.68 26.79, -0.3 0.19 M0.24 58.09 C-0.3 37.23, -0.8 16.55, -0.87 -0.97" stroke="#000000" stroke-width="1" fill="none"></path></g><g transform="translate(869 414.5) rotate(0 28 12.5)"><text x="28" y="18" font-family="Virgil, Segoe UI Emoji" font-size="20px" fill="#495057" text-anchor="middle" style="white-space: pre;" direction="ltr">GZIP</text></g><g stroke-linecap="round" transform="translate(15 498) rotate(0 515.5 124.5)"><path d="M-0.58 0.28 C282.97 -3.96, 567.3 -3.34, 1030.75 -0.16 M0.29 -0.34 C376.43 1.83, 752.33 1.62, 1030.78 -0.27 M1032.14 -0.57 C1032.73 75.67, 1032.25 153.23, 1030.02 250.1 M1031.58 0.2 C1030.93 78.37, 1031.16 156.82, 1031.18 248.8 M1030.62 249.13 C794.27 249.3, 559.1 249.54, 0.29 248.85 M1030.98 248.78 C674.24 249.71, 317 249.57, -0.16 248.83 M0.43 248.88 C2.47 169.03, 0.81 86.41, 0.02 1.23 M-0.48 248.61 C-0.73 188.99, -0.8 128.9, -0.44 -0.65" stroke="#495057" stroke-width="1" fill="none"></path></g><g transform="translate(463 526) rotate(0 77 12.5)"><text x="0" y="18" font-family="Virgil, Segoe UI Emoji" font-size="20px" fill="#000000" text-anchor="start" style="white-space: pre;" direction="ltr">Encryption layer</text></g><g stroke-linecap="round" transform="translate(87 569.5) rotate(0 226 31.5)"><path d="M-0.8 0.02 C146.7 1.75, 291.67 0.86, 452.61 -0.69 M0.14 0.05 C167.16 2.54, 333.85 2.02, 451.6 -0.19 M450.08 -0.92 C450.82 12.66, 451.41 25.95, 450.34 64.04 M452.24 -0.64 C452.51 22.48, 452.37 45.5, 451.29 62.98 M451.25 62.65 C336.75 64.07, 222.63 63.22, 0.62 63.25 M451.57 63.42 C327.44 63.52, 202.72 64.15, 0.06 62.61 M-0.2 63.57 C0.99 37.56, 0.64 12.33, 1.03 -0.4 M0.59 63.94 C-1.43 48.2, -0.08 33.94, -0.64 0.04" stroke="#000000" stroke-width="1" fill="none"></path></g><g stroke-linecap="round" transform="translate(567 568.5) rotate(0 215.5 32.5)"><path d="M0.96 -0.21 C148.85 1.8, 298.05 0.99, 430.22 -0.21 M-0.22 -0.33 C141.39 0.45, 281.67 0.2, 430.73 -0.49 M431.81 1.21 C429.71 18.76, 431.55 38.36, 431.84 66.55 M431.75 -0.49 C430.72 16.19, 430.99 33.77, 430.33 64.89 M430.4 65.69 C274.21 62.77, 116.52 63.75, -0.3 65.34 M431.28 65.07 C263.03 65.4, 94.51 66.14, -0.45 64.99 M0.12 66.81 C-1.71 46.23, 0.02 29.07, 1.12 1.12 M0.73 64.67 C0.12 40.68, -0.06 16.14, 0.45 0.36" stroke="#000000" stroke-width="1" fill="none"></path></g><g transform="translate(284.5 587.5) rotate(0 19.5 12.5)"><text x="19.5" y="18" font-family="Virgil, Segoe UI Emoji" font-size="20px" fill="#000000" text-anchor="middle" style="white-space: pre;" direction="ltr">RSA</text></g><g transform="translate(763 588.5) rotate(0 19.5 12.5)"><text x="19.5" y="18" font-family="Virgil, Segoe UI Emoji" font-size="20px" fill="#000000" text-anchor="middle" style="white-space: pre;" direction="ltr">ECC</text></g><g stroke-linecap="round" transform="translate(93 654.5) rotate(0 450 34.5)"><path d="M0.44 -0.61 C202.71 -0.87, 405.92 -2.02, 899.61 0.52 M0.4 -0.39 C356.38 3.43, 712.56 3.74, 900.33 -0.05 M899.97 -1.04 C900.58 26.6, 898.96 54.18, 899.28 70.54 M899.02 -0.56 C898.8 19.51, 899.57 36.66, 900.49 68.51 M899.65 69.42 C595.78 69.46, 290.13 69.56, 0.67 68.88 M900.1 68.8 C639.01 70.1, 377.67 70.09, 0.14 68.86 M1.02 68.68 C-0.4 41.85, -1.69 14.89, 1.14 -0.68 M0.83 69.58 C-0.49 50.93, 0.3 32.49, -0.44 -0.82" stroke="#000000" stroke-width="1" fill="none"></path></g><g transform="translate(511 674) rotate(0 19.5 12.5)"><text x="0" y="18" font-family="Virgil, Segoe UI Emoji" font-size="20px" fill="#000000" text-anchor="start" style="white-space: pre;" direction="ltr">AES</text></g><g stroke-linecap="round" transform="translate(21 763) rotate(0 514 80)"><path d="M-0.28 0.51 C331.63 -0.17, 662.02 -0.69, 1028.52 0.44 M-0.23 0.37 C314.42 2.37, 629.49 2.53, 1028.07 -0.31 M1029.87 1.29 C1028.02 59.37, 1028.67 119.16, 1026.18 160.95 M1027.02 -0.05 C1027.07 53.35, 1027.18 106.1, 1028.65 160.1 M1028.28 159.74 C720.45 156.63, 413.9 156.2, -0.57 160.1 M1027.64 160.21 C718.34 157.28, 408.43 156.85, -0.13 159.63 M-0.65 159.74 C2.3 104.04, 0.97 51.16, -0.45 -1.1 M-0.96 159.54 C2.1 114.89, 0.27 70.62, -0.94 -0.92" stroke="#0b7285" stroke-width="1" fill="none"></path></g><g transform="translate(490 780) rotate(0 39.5 12.5)"><text x="0" y="18" font-family="Virgil, Segoe UI Emoji" font-size="20px" fill="#495057" text-anchor="start" style="white-space: pre;" direction="ltr">Encoding</text></g><g stroke-linecap="round" transform="translate(47 831.5) rotate(0 158 31.5)"><path d="M0.99 -0.05 C95.68 -2.4, 192.71 -0.66, 316.09 -1.19 M-0.35 -0.55 C74.61 -2.32, 148.42 -2.59, 316.52 -0.07 M316.19 -0.45 C317.42 14.46, 314.77 30.87, 316.69 62.75 M315.27 -0.19 C314.77 19.96, 316.03 41.99, 315.99 62.89 M315.27 63.4 C249.15 61.92, 180.63 62.46, 0.02 62.88 M316.25 63.14 C242.75 63.53, 169.12 63.49, 0.31 62.83 M1.92 62.05 C0.79 39.59, -0.24 12.69, -0.44 -1.5 M0.9 62.36 C-0.32 44.64, -0.34 26.24, 0.78 0.37" stroke="#000000" stroke-width="1" fill="none"></path></g><g transform="translate(182 852.5) rotate(0 26 12.5)"><text x="26" y="18" font-family="Virgil, Segoe UI Emoji" font-size="20px" fill="#495057" text-anchor="middle" style="white-space: pre;" direction="ltr">JSON</text></g><g stroke-linecap="round" transform="translate(403 833.5) rotate(0 152.5 30)"><path d="M-0.22 -0.99 C112.07 0.87, 222.35 -1.15, 304.05 -0.85 M0.47 -0.28 C119.57 1.17, 239.42 1.65, 304.55 0.68 M305.83 -0.5 C303.24 22.83, 305.75 43.51, 305.65 58.04 M304.39 -0.99 C305.21 17.8, 304.55 35.28, 304.13 60.34 M305.33 59.63 C222.32 60.82, 141.74 60.51, -0.99 58.71 M305.08 59.36 C197.55 59.76, 90.88 60.26, 0.66 59.76 M0.59 61.19 C-1.02 41.68, -1.02 24.06, -0.31 -1.93 M-0.93 59.56 C-1.48 43.82, 0.24 29.85, -0.33 0.32" stroke="#000000" stroke-width="1" fill="none"></path></g><g transform="translate(479.5 849.5) rotate(0 64.5 12.5)"><text x="64.5" y="18" font-family="Virgil, Segoe UI Emoji" font-size="20px" fill="#495057" text-anchor="middle" style="white-space: pre;" direction="ltr">MessagePack</text></g><g stroke-linecap="round" transform="translate(736 834.5) rotate(0 146.5 29.5)"><path d="M0.96 0.82 C86.95 0.23, 172.76 0.62, 294.36 -0.73 M0.13 -0.57 C65.52 0.78, 129.48 1.55, 293.48 0.07 M291.18 0.95 C293.94 16.11, 293.89 30.77, 292.9 57.55 M293.65 0.1 C292.63 16.44, 291.76 33.44, 292.68 58.49 M291.93 59.19 C196.8 58.32, 99.54 57.11, 0.77 59.54 M292.76 58.31 C199.7 56.9, 106.43 56.83, -0.1 59.71 M-0.45 57.9 C-0.61 42.59, -0.49 27.27, -0.91 1.8 M-0.94 58.08 C1.33 45.45, 0.22 31.48, -0.17 -0.92" stroke="#000000" stroke-width="1" fill="none"></path></g><g transform="translate(841.5 852.5) rotate(0 43.5 12.5)"><text x="43.5" y="18" font-family="Virgil, Segoe UI Emoji" font-size="20px" fill="#495057" text-anchor="middle" style="white-space: pre;" direction="ltr">Protobuf</text></g><g stroke-linecap="round" transform="translate(20.5 940.5) rotate(0 514.5 107)"><path d="M-0.53 -0.08 C246.76 -0.34, 492.39 0.79, 1029.72 0.6 M-0.09 -0.39 C227.96 2.87, 456.28 2.62, 1029.07 -0.23 M1027.66 -1.22 C1030.35 57.23, 1030.07 113.89, 1029.43 215.05 M1028.53 0.67 C1028.17 66.68, 1026.92 132.93, 1028.32 213.93 M1029.76 213.27 C780.95 210.71, 531.35 210.99, -0.5 213.39 M1028.62 213.61 C809.96 214.85, 591.28 214.77, -0.16 213.64 M-0.51 213.15 C1.45 126.7, 0.32 41.75, -0.17 -1.55 M0.58 213.52 C-1 151.29, -2.46 89.61, 0.17 0.22" stroke="#495057" stroke-width="1" fill="none"></path></g><g transform="translate(468.5 968.5) rotate(0 45.5 12.5)"><text x="0" y="18" font-family="Virgil, Segoe UI Emoji" font-size="20px" fill="#000000" text-anchor="start" style="white-space: pre;" direction="ltr">Discovery</text></g><g stroke-linecap="round" transform="translate(50.5 1023.5) rotate(0 146.50000000000006 29.5)"><path d="M-1.49 -1.43 C96.7 0.15, 190.69 0.45, 293.23 1.47 M0.47 -0.29 C61.18 1.08, 122.32 0.89, 293.04 0.22 M291.79 0.15 C292.39 22.09, 291.76 43, 292.57 60.54 M293.74 0.82 C291.5 21.5, 292.08 42.47, 292.38 59.27 M293.49 59.47 C225.33 58.43, 154.43 57.56, -1.42 58.35 M292.5 58.83 C229.38 60.62, 165.83 60.58, -0.52 59.4 M-0.9 60.09 C0.98 41.34, -0.01 23.58, 1.26 -0.69 M0.16 59.48 C-0.52 42.82, -0.61 28.03, 0.44 0.74" stroke="#000000" stroke-width="1" fill="none"></path></g><g transform="translate(179 1041.5) rotate(0 20.5 12.5)"><text x="20.5" y="18" font-family="Virgil, Segoe UI Emoji" font-size="20px" fill="#495057" text-anchor="middle" style="white-space: pre;" direction="ltr">P2P</text></g><g stroke-linecap="round" transform="translate(399.5 1029.5) rotate(0 146.5 29.5)"><path d="M-0.1 0.66 C66.64 1.71, 133.64 1.88, 292.51 1.24 M0.54 0.36 C70.92 -0.57, 140.98 0.89, 293.69 0.18 M292 -0.43 C291.32 12.53, 291.46 26.5, 294.52 58.03 M292.57 0.72 C292.57 21.24, 292.62 40.88, 292.22 59.68 M292.12 57.8 C186.81 61.37, 80.97 61.75, -0.97 59.73 M292.78 59.29 C193.73 58.54, 95.02 59.84, 0.01 58.94 M1.16 59.5 C2.35 36.13, -0.01 12.74, 1.48 -0.97 M0.53 59.82 C1.41 38.94, 0.43 17.9, -0.45 0.89" stroke="#000000" stroke-width="1" fill="none"></path></g><g transform="translate(519.5 1047.5) rotate(0 29 12.5)"><text x="29" y="18" font-family="Virgil, Segoe UI Emoji" font-size="20px" fill="#495057" text-anchor="middle" style="white-space: pre;" direction="ltr">ETCD</text></g><g stroke-linecap="round" transform="translate(731.5 1027.5) rotate(0 146.5 29.5)"><path d="M-0.83 0.45 C67.59 0.34, 135.79 0.65, 293 1.22 M-0.57 -0.58 C90.59 1.35, 180.43 1.99, 292.71 -0.36 M293.43 -0.64 C295.16 14.96, 292.21 29.81, 293.59 60.12 M292.62 0.18 C292.73 13.01, 293.86 24.14, 293.33 58.85 M292.72 60.25 C214.81 58.05, 135.65 58.26, 0.47 60.33 M292.51 58.75 C187.38 58.85, 80.87 59.23, 0.23 59.04 M0.74 58.93 C0.89 37.58, 1.16 11.51, 1.39 0.08 M-0.46 59.46 C-1.26 35.91, -1 14, -0.62 0.65" stroke="#000000" stroke-width="1" fill="none"></path></g><g transform="translate(850 1045.5) rotate(0 30.5 12.5)"><text x="30.5" y="18" font-family="Virgil, Segoe UI Emoji" font-size="20px" fill="#495057" text-anchor="middle" style="white-space: pre;" direction="ltr">Consul</text></g><g transform="translate(759 1113) rotate(0 131 12.5)"><text x="0" y="18" font-family="Virgil, Segoe UI Emoji" font-size="20px" fill="#000000" text-anchor="start" style="white-space: pre;" direction="ltr">Support for custom plugins</text></g><g stroke-linecap="round" transform="translate(22.5 1170) rotate(0 514.5 107)"><path d="M0.74 0.34 C275.96 3.69, 550.19 3.71, 1028.91 0.12 M-0.36 0.16 C269.7 -0.9, 539.5 -0.47, 1028.95 0.27 M1029.23 -0.91 C1026.86 53.45, 1027.62 103.64, 1027.32 215.63 M1028.98 0.63 C1028.58 82.7, 1028.57 164.52, 1028.17 213.7 M1028.93 213.72 C712.32 215.7, 395.77 214.66, -0.36 214.51 M1028.77 213.92 C815.99 217.87, 602.62 217.55, 0.2 214.04 M-0.74 213.65 C0.11 153.87, 1.78 90.41, -0.08 -0.99 M0.06 213.2 C1.15 137.26, 1.25 60.9, 0.66 -0.01" stroke="#364fc7" stroke-width="1" fill="none"></path></g><g transform="translate(470.5 1198) rotate(0 71.5 12.5)"><text x="0" y="18" font-family="Virgil, Segoe UI Emoji" font-size="20px" fill="#000000" text-anchor="start" style="white-space: pre;" direction="ltr">Load balancing</text></g><g stroke-linecap="round" transform="translate(52.5 1253) rotate(0 146.50000000000006 29.5)"><path d="M1.45 0.37 C62.73 -0.54, 125.89 -0.71, 292.44 1.09 M-0.15 -0.25 C93.22 -0.35, 186.61 -0.39, 292.57 -0.2 M291.15 1.87 C292.09 16.69, 291.17 35.2, 294.67 57.9 M293.69 0.67 C293.67 20.68, 292.04 40.35, 293.08 58.39 M293.26 59.91 C197.21 57.19, 99.24 59.17, -1.38 58.11 M293.54 59.19 C178.69 58.17, 63.98 58.65, -0.11 58.52 M-1.27 60.08 C0.89 37.24, 0.15 17.61, 1.12 -1.46 M-0.25 58.41 C-0.18 39.91, 0.72 22.29, 0.67 0.99" stroke="#000000" stroke-width="1" fill="none"></path></g><g transform="translate(172 1271) rotate(0 29.5 12.5)"><text x="29.5" y="18" font-family="Virgil, Segoe UI Emoji" font-size="20px" fill="#495057" text-anchor="middle" style="white-space: pre;" direction="ltr">Polling</text></g><g stroke-linecap="round" transform="translate(401.5 1259) rotate(0 146.5 29.5)"><path d="M-0.3 0.4 C100.28 -0.32, 200.35 0.54, 293.28 -1.33 M-0.13 0.55 C99.86 1.23, 199.48 0.52, 292.87 0.1 M292.01 0.02 C290.54 16.5, 294.13 28.18, 293.9 58.96 M293.68 0.33 C292.46 21.63, 293.49 43.33, 293.29 58.91 M293.76 57.96 C214.74 61.27, 136.45 59.44, 1.36 58.16 M293.39 58.59 C211.24 59.65, 128.61 59.08, 0.31 58.69 M0.64 57.37 C0.28 41.35, 1.5 24.5, 0.22 0.14 M-0.14 58.26 C0.91 46.64, 0.82 35.29, 0.87 0.54" stroke="#000000" stroke-width="1" fill="none"></path></g><g transform="translate(515 1277) rotate(0 35.5 12.5)"><text x="35.5" y="18" font-family="Virgil, Segoe UI Emoji" font-size="20px" fill="#495057" text-anchor="middle" style="white-space: pre;" direction="ltr">Random</text></g><g stroke-linecap="round" transform="translate(733.5 1257) rotate(0 146.5 29.5)"><path d="M-0.17 0.22 C94.7 0.5, 190.81 -1.91, 293.61 -0.31 M-0.09 0.51 C77.73 -1.81, 156.2 -1.51, 292.61 -0.69 M291.09 1.86 C294.38 22.12, 293.61 46.39, 294.45 60.39 M292.06 -0.34 C293.48 21.05, 293.7 43.24, 292.65 59.17 M292.32 59.94 C185.86 56.59, 82.84 56.64, -0.29 60.08 M293.38 59.08 C197.44 57.33, 102.41 57.5, -0.15 58.53 M-0.1 57.87 C0.94 36.65, 0.03 17.36, -1.81 -0.5 M0.76 58.99 C0.75 45.75, 0.95 31.06, 0.77 0.74" stroke="#000000" stroke-width="1" fill="none"></path></g><g transform="translate(806.5 1275) rotate(0 76 12.5)"><text x="76" y="18" font-family="Virgil, Segoe UI Emoji" font-size="20px" fill="#495057" text-anchor="middle" style="white-space: pre;" direction="ltr">Weighted Polling</text></g><g transform="translate(761 1342.5) rotate(0 131 12.5)"><text x="0" y="18" font-family="Virgil, Segoe UI Emoji" font-size="20px" fill="#000000" text-anchor="start" style="white-space: pre;" direction="ltr">Support for custom plugins</text></g><g stroke-linecap="round" transform="translate(23.5 1398) rotate(0 514.5 107)"><path d="M-0.36 0.41 C376.28 1.36, 754.59 1.22, 1028.87 0.27 M0.16 0.33 C250.21 0.63, 499.91 0.57, 1028.98 0.37 M1029.62 -0.44 C1031.97 79.94, 1029.29 160.21, 1028.15 214.81 M1029.8 -0.83 C1030.48 77.14, 1030.56 155.73, 1028.14 214.74 M1028.37 214 C783.55 214.54, 537.67 215.19, -0.02 213.41 M1029.29 213.83 C803.52 214.73, 578.11 214.92, 0.02 213.99 M0.18 215.35 C0.74 145.58, 0.19 72.83, -0.77 0.76 M-0.73 214.65 C-0.27 159.35, -0.35 106.29, -0.72 0.25" stroke="#495057" stroke-width="1" fill="none"></path></g><g transform="translate(471.5 1426) rotate(0 94.5 12.5)"><text x="0" y="18" font-family="Virgil, Segoe UI Emoji" font-size="20px" fill="#000000" text-anchor="start" style="white-space: pre;" direction="ltr">AOP MIDDLEWARE</text></g><g stroke-linecap="round" transform="translate(53.5 1481) rotate(0 146.50000000000006 29.5)"><path d="M-1.28 0.83 C82.62 -0.56, 162.53 -0.62, 292.15 -0.26 M0.65 -0.6 C81.5 -2.5, 162.26 -1.1, 293.54 0.52 M294.89 0.41 C292.05 18.63, 292.24 35.8, 294.26 60.48 M293.1 -0.66 C293.74 22.14, 292.56 44.48, 292.39 59.64 M294.11 57.74 C197.84 58.94, 99.79 57.89, -1.21 58.51 M292.96 58.89 C199.54 58.32, 106.01 58.05, 0.2 59.19 M1.39 60.87 C0.71 42.09, -0.94 28.46, -0.97 0.91 M0.66 58.04 C1.07 45.16, -0.32 31.81, 0.55 -0.65" stroke="#000000" stroke-width="1" fill="none"></path></g><g transform="translate(175 1499) rotate(0 27.5 12.5)"><text x="27.5" y="18" font-family="Virgil, Segoe UI Emoji" font-size="20px" fill="#495057" text-anchor="middle" style="white-space: pre;" direction="ltr">AUTH</text></g><g stroke-linecap="round" transform="translate(402.5 1487) rotate(0 146.5 29.5)"><path d="M1.24 0.56 C102.73 -0.72, 205.08 -1.48, 292.66 0.59 M0.35 -0.71 C111.86 2.45, 224.33 2.28, 292.97 0.26 M291.84 1.19 C292.59 17.13, 294.82 33.9, 294.39 60.83 M293.2 0.33 C292.08 12.98, 292.45 24.9, 293.3 58.21 M294.43 58.94 C205.16 56.05, 116.2 56.67, 0.29 60.07 M293.05 59.25 C217.58 58.66, 142.31 58.88, -0.25 59.08 M0.77 57.8 C-1.29 37.63, -1.38 15.44, -1.34 -1.68 M0.57 58.9 C-1.2 37.2, 0.16 14.17, -0.37 -0.76" stroke="#000000" stroke-width="1" fill="none"></path></g><g transform="translate(529 1505) rotate(0 22.5 12.5)"><text x="22.5" y="18" font-family="Virgil, Segoe UI Emoji" font-size="20px" fill="#495057" text-anchor="middle" style="white-space: pre;" direction="ltr">Fuse</text></g><g stroke-linecap="round" transform="translate(734.5 1485) rotate(0 146.5 29.5)"><path d="M-0.24 0.5 C103.45 -1.08, 208.26 -0.23, 294.22 1.29 M-0.04 0.69 C64.78 2.61, 128.45 2.36, 292.81 0.7 M292.03 0.92 C293.92 20.4, 294.05 39.65, 291.11 59.2 M292.02 0.85 C292.51 14.43, 293.41 26.79, 293 59.75 M292.95 57.9 C228.66 58.43, 167.01 59.98, -0.63 58.92 M293.03 58.98 C209.52 59.92, 125.38 59.81, 0.57 59.52 M-0.88 59.86 C-1.2 36.7, -1.57 10.91, 1.49 1.32 M-0.82 59.29 C0.21 46.33, -0.71 34.2, -0.59 0.05" stroke="#000000" stroke-width="1" fill="none"></path></g><g transform="translate(828 1503) rotate(0 55.5 12.5)"><text x="55.5" y="18" font-family="Virgil, Segoe UI Emoji" font-size="20px" fill="#495057" text-anchor="middle" style="white-space: pre;" direction="ltr">Prometheus</text></g><g transform="translate(733 1567.5) rotate(0 151 12.5)"><text x="0" y="18" font-family="Virgil, Segoe UI Emoji" font-size="20px" fill="#000000" text-anchor="start" style="white-space: pre;" direction="ltr">Support for custom middleware</text></g></svg>